<svg width="24" height="24" viewBox="0 0 24 24" fill="none" xmlns="http://www.w3.org/2000/svg">
<g clip-path="url(#clip0_474_997)">
<path d="M11.166 5.33344H5.33268C4.89065 5.33344 4.46673 5.50904 4.15417 5.8216C3.84161 6.13416 3.66602 6.55808 3.66602 7.00011V18.6668C3.66602 19.1088 3.84161 19.5327 4.15417 19.8453C4.46673 20.1578 4.89065 20.3334 5.33268 20.3334H16.9993C17.4414 20.3334 17.8653 20.1578 18.1779 19.8453C18.4904 19.5327 18.666 19.1088 18.666 18.6668V12.8334M17.416 4.08344C17.7475 3.75192 18.1972 3.56567 18.666 3.56567C19.1349 3.56567 19.5845 3.75192 19.916 4.08344C20.2475 4.41496 20.4338 4.8646 20.4338 5.33344C20.4338 5.80228 20.2475 6.25192 19.916 6.58344L11.9993 14.5001L8.66602 15.3334L9.49935 12.0001L17.416 4.08344Z" stroke="#767676" stroke-width="2" stroke-linecap="round" stroke-linejoin="round"/>
</g>
<defs>
<clipPath id="clip0_474_997">
<rect width="20" height="20" fill="white" transform="translate(2 2)"/>
</clipPath>
</defs>
</svg>
