<svg width="44" height="44" viewBox="0 0 44 44" fill="none" xmlns="http://www.w3.org/2000/svg">
<rect width="44" height="44" rx="8" fill="#979797"/>
<g clip-path="url(#clip0_499_400)">
<path d="M22 25C23.6569 25 25 23.6569 25 22C25 20.3431 23.6569 19 22 19C20.3431 19 19 20.3431 19 22C19 23.6569 20.3431 25 22 25Z" stroke="#767676" stroke-width="2.5" stroke-linecap="round" stroke-linejoin="round"/>
<path d="M29.4 25C29.2669 25.3016 29.2272 25.6362 29.286 25.9606C29.3448 26.285 29.4995 26.5843 29.73 26.82L29.79 26.88C29.976 27.0657 30.1235 27.2863 30.2241 27.5291C30.3248 27.7719 30.3766 28.0322 30.3766 28.295C30.3766 28.5578 30.3248 28.8181 30.2241 29.0609C30.1235 29.3037 29.976 29.5243 29.79 29.71C29.6043 29.896 29.3837 30.0435 29.1409 30.1441C28.8981 30.2448 28.6378 30.2966 28.375 30.2966C28.1122 30.2966 27.8519 30.2448 27.6091 30.1441C27.3663 30.0435 27.1457 29.896 26.96 29.71L26.9 29.65C26.6643 29.4195 26.365 29.2648 26.0406 29.206C25.7162 29.1472 25.3816 29.1869 25.08 29.32C24.7842 29.4468 24.532 29.6572 24.3543 29.9255C24.1766 30.1938 24.0813 30.5082 24.08 30.83V31C24.08 31.5304 23.8693 32.0391 23.4942 32.4142C23.1191 32.7893 22.6104 33 22.08 33C21.5496 33 21.0409 32.7893 20.6658 32.4142C20.2907 32.0391 20.08 31.5304 20.08 31V30.91C20.0723 30.579 19.9651 30.258 19.7725 29.9887C19.5799 29.7194 19.3107 29.5143 19 29.4C18.6984 29.2669 18.3638 29.2272 18.0394 29.286C17.715 29.3448 17.4157 29.4995 17.18 29.73L17.12 29.79C16.9343 29.976 16.7137 30.1235 16.4709 30.2241C16.2281 30.3248 15.9678 30.3766 15.705 30.3766C15.4422 30.3766 15.1819 30.3248 14.9391 30.2241C14.6963 30.1235 14.4757 29.976 14.29 29.79C14.104 29.6043 13.9565 29.3837 13.8559 29.1409C13.7552 28.8981 13.7034 28.6378 13.7034 28.375C13.7034 28.1122 13.7552 27.8519 13.8559 27.6091C13.9565 27.3663 14.104 27.1457 14.29 26.96L14.35 26.9C14.5805 26.6643 14.7352 26.365 14.794 26.0406C14.8528 25.7162 14.8131 25.3816 14.68 25.08C14.5532 24.7842 14.3428 24.532 14.0745 24.3543C13.8062 24.1766 13.4918 24.0813 13.17 24.08H13C12.4696 24.08 11.9609 23.8693 11.5858 23.4942C11.2107 23.1191 11 22.6104 11 22.08C11 21.5496 11.2107 21.0409 11.5858 20.6658C11.9609 20.2907 12.4696 20.08 13 20.08H13.09C13.421 20.0723 13.742 19.9651 14.0113 19.7725C14.2806 19.5799 14.4857 19.3107 14.6 19C14.7331 18.6984 14.7728 18.3638 14.714 18.0394C14.6552 17.715 14.5005 17.4157 14.27 17.18L14.21 17.12C14.024 16.9343 13.8765 16.7137 13.7759 16.4709C13.6752 16.2281 13.6234 15.9678 13.6234 15.705C13.6234 15.4422 13.6752 15.1819 13.7759 14.9391C13.8765 14.6963 14.024 14.4757 14.21 14.29C14.3957 14.104 14.6163 13.9565 14.8591 13.8559C15.1019 13.7552 15.3622 13.7034 15.625 13.7034C15.8878 13.7034 16.1481 13.7552 16.3909 13.8559C16.6337 13.9565 16.8543 14.104 17.04 14.29L17.1 14.35C17.3357 14.5805 17.635 14.7352 17.9594 14.794C18.2838 14.8528 18.6184 14.8131 18.92 14.68H19C19.2958 14.5532 19.548 14.3428 19.7257 14.0745C19.9034 13.8062 19.9987 13.4918 20 13.17V13C20 12.4696 20.2107 11.9609 20.5858 11.5858C20.9609 11.2107 21.4696 11 22 11C22.5304 11 23.0391 11.2107 23.4142 11.5858C23.7893 11.9609 24 12.4696 24 13V13.09C24.0013 13.4118 24.0966 13.7262 24.2743 13.9945C24.452 14.2628 24.7042 14.4732 25 14.6C25.3016 14.7331 25.6362 14.7728 25.9606 14.714C26.285 14.6552 26.5843 14.5005 26.82 14.27L26.88 14.21C27.0657 14.024 27.2863 13.8765 27.5291 13.7759C27.7719 13.6752 28.0322 13.6234 28.295 13.6234C28.5578 13.6234 28.8181 13.6752 29.0609 13.7759C29.3037 13.8765 29.5243 14.024 29.71 14.21C29.896 14.3957 30.0435 14.6163 30.1441 14.8591C30.2448 15.1019 30.2966 15.3622 30.2966 15.625C30.2966 15.8878 30.2448 16.1481 30.1441 16.3909C30.0435 16.6337 29.896 16.8543 29.71 17.04L29.65 17.1C29.4195 17.3357 29.2648 17.635 29.206 17.9594C29.1472 18.2838 29.1869 18.6184 29.32 18.92V19C29.4468 19.2958 29.6572 19.548 29.9255 19.7257C30.1938 19.9034 30.5082 19.9987 30.83 20H31C31.5304 20 32.0391 20.2107 32.4142 20.5858C32.7893 20.9609 33 21.4696 33 22C33 22.5304 32.7893 23.0391 32.4142 23.4142C32.0391 23.7893 31.5304 24 31 24H30.91C30.5882 24.0013 30.2738 24.0966 30.0055 24.2743C29.7372 24.452 29.5268 24.7042 29.4 25Z" stroke="#767676" stroke-width="2.5" stroke-linecap="round" stroke-linejoin="round"/>
</g>
<defs>
<clipPath id="clip0_499_400">
<rect width="24" height="24" fill="white" transform="translate(10 10)"/>
</clipPath>
</defs>
</svg>
